<svg width="45" height="45" viewBox="0 0 45 45" xmlns="http://www.w3.org/2000/svg" xmlns:xlink="http://www.w3.org/1999/xlink">
    <defs>
        <path id="bcs49e0pda" d="M0 0h45v31.227H0z"/>
    </defs>
    <g fill="none" fill-rule="evenodd">
        <g>
            <mask id="94vs5c40jb" fill="#fff">
                <use xlink:href="#bcs49e0pda"/>
            </mask>
            <path d="M43.232 13.742a22.428 22.428 0 0 0-4.822-7.153 22.474 22.474 0 0 0-7.152-4.822A22.371 22.371 0 0 0 22.501 0c-3.037 0-5.984.595-8.758 1.767A22.451 22.451 0 0 0 6.591 6.59a22.428 22.428 0 0 0-4.822 7.153A22.356 22.356 0 0 0 0 22.499c0 2.797.508 5.526 1.508 8.113a.963.963 0 0 0 1.794-.694A20.492 20.492 0 0 1 1.923 22.5 20.52 20.52 0 0 1 7.95 7.95a20.497 20.497 0 0 1 14.55-6.027c2.777 0 5.473.545 8.009 1.616a20.53 20.53 0 0 1 6.541 4.411 20.534 20.534 0 0 1 4.41 6.54 20.444 20.444 0 0 1 1.617 8.01c0 2.558-.464 5.055-1.378 7.42a.962.962 0 0 0 1.794.693C44.493 28.025 45 25.296 45 22.499c0-3.037-.596-5.982-1.769-8.757" fill="#FEFEFE" mask="url(#94vs5c40jb)"/>
        </g>
        <path d="M32.867 11.074a.959.959 0 1 1-1.918 0 .959.959 0 0 1 1.918 0M22.13 14.458c0 1.093.887 1.982 1.98 1.982h1.536v-.893H24.11a1.09 1.09 0 0 1 0-2.177h1.536v-.894H24.11a1.982 1.982 0 0 0-1.98 1.982M25.87 14.458c0 1.093.89 1.982 1.983 1.982h1.536v-.893h-1.536c-.6 0-1.09-.488-1.09-1.09 0-.598.49-1.087 1.09-1.087h1.536v-.894h-1.536a1.984 1.984 0 0 0-1.983 1.982M35.937 11.074a.96.96 0 1 1-1.919-.003.96.96 0 0 1 1.92.003M34.978 12.476c-.619 0-1.171.285-1.535.73a1.98 1.98 0 0 0-3.518 1.251v1.984h.892v-1.984a1.09 1.09 0 0 1 2.178 0v1.984h.894v-1.984a1.09 1.09 0 0 1 2.18 0v1.984h.892v-1.984a1.984 1.984 0 0 0-1.983-1.981M11.512 37.635c-.507 0-.851.144-.851.424 0 .285.344.423.85.423.514 0 .85-.138.85-.423 0-.28-.336-.424-.85-.424M25.834 36.446c.39 0 .608-.23.608-.483 0-.293-.208-.51-.608-.51-.382 0-.616.238-.616.51 0 .27.214.483.616.483M15.543 37.638c-.394 0-.83.093-.83.433 0 .343.436.421.83.421.386 0 .823-.078.823-.421 0-.34-.437-.433-.823-.433M33.64 36.673c0-.247-.227-.418-.538-.418-.298 0-.534.167-.534.418 0 .249.236.416.534.416.311 0 .539-.172.539-.416" fill="#FEFEFE"/>
        <path d="M35.063 38.698v.079h-.443v-3.715h.443v3.636zm-.607-.689v.044l-.055.022c-.285.105-.838.125-1.403.125h-1.104v-.367h1.003v-.393c-.458-.075-.783-.363-.783-.767 0-.456.431-.783.988-.783.55 0 .999.327.999.783 0 .39-.328.689-.765.763v.397c.386-.012.808-.05 1.12-.128v.304zm-3.025.694v.078h-2.367a.238.238 0 0 1-.237-.238v-.757h.444v.578c0 .026.019.038.035.038h2.125v.3zm-3.162-2.07h1.141c.483 0 1.053-.054 1.354-.13v.368l-.053.023c-.282.106-.835.122-1.249.122v.606h-.452v-.606h-.74v-.382zm-.51 2.065v.079h-.448v-3.708h.448v3.63zm-.604-1.418v.05l-.054.02c-.292.093-.607.113-1.095.125v1.284h-.446v-1.284h-.919v-.379h1.24c.463 0 .934-.042 1.274-.12v.304zm-2.981 1.418v.079h-.441V36.68h-.423v2.008h-.44v-3.626h.44v1.244h.423v-1.244h.44v3.636zm-1.488-.881a8.797 8.797 0 0 1-1.46.103.232.232 0 0 1-.24-.235v-1.341h.994c.028 0 .039-.015.039-.042v-.726h-1.033v-.353h1.478v1.469h-1.037v.826c0 .027.012.039.04.039.345.004.709-.015 1.219-.094v.354zm-2.233.881v.079h-.441V36.62h-.78c0 .924-.931 1.416-1.696 1.59l-.229-.316c.581-.14 1.473-.525 1.473-1.215l.005-1.01c0-.027-.016-.039-.044-.039h-1.337v-.374h1.598c.137 0 .23.113.23.238v.752h.78v-1.18h.44v3.631zm-4.913.157c-.554 0-1.26-.129-1.26-.784 0-.651.787-.794 1.26-.794.548 0 1.254.136 1.254.794s-.706.784-1.254.784zm-1.957-1.961c.56-.237.97-.643.97-.986v-.37h-.725v-.359h1.921v.36h-.74v.369c0 .41.561.729.92.884l-.276.295c-.3-.126-.667-.375-.862-.622-.218.273-.611.589-.93.714l-.278-.285zm-.319.106v.077h-3.51v-.365h1.333v-.8h.44v.8h1.737V37zm-1.752 1.843c-.722 0-1.315-.242-1.315-.784 0-.54.593-.787 1.315-.787.726 0 1.314.246 1.314.787 0 .542-.588.784-1.314.784zm-1.29-3.74h2.345c.129 0 .239.097.239.232v.35c0 .2-.052.535-.2.83l-.426-.002c.063-.188.186-.616.186-.808V35.5c0-.027-.012-.04-.04-.04h-2.105v-.357zm6.132-.037h.437v2.16h-.437v-1.002h-.81v-.375h.81v-.783zm9.48.036c.618 0 1.033.362 1.033.86 0 .507-.44.839-1.033.839-.658 0-1.053-.324-1.053-.838 0-.499.426-.86 1.053-.86zm3.582-.036c.485 0 .99.221.99.703s-.505.7-.99.7c-.484 0-.988-.218-.988-.7s.504-.703.988-.703zm1.515 0h.445V37.991h-.445v-.36h-1.08v-.37h1.08v-2.195zm1.02.362h.918v-.412h.449v.412h.939v.38H31.95v-.38zm9.92-2.427a.96.96 0 0 0-.835-.485H3.966a.962.962 0 0 0-.826 1.452 22.641 22.641 0 0 0 8.06 7.992A22.486 22.486 0 0 0 22.501 45c3.977 0 7.884-1.051 11.3-3.04a22.67 22.67 0 0 0 8.062-7.992.962.962 0 0 0 .007-.967z" fill="#FEFEFE"/>
        <path d="M29.416 36.127c.29 0 .56-.105.56-.358 0-.263-.27-.359-.56-.359-.278 0-.557.104-.557.359 0 .253.28.358.557.358M7.84 21.483c.528.864 1.938 1.784 2.756 2.042l.587-.713c-.974-.32-2.88-1.463-2.88-2.649v-1.16h-.924v1.16c0 1.221-1.93 2.328-2.911 2.649l.61.723c.915-.312 2.22-1.259 2.762-2.052" fill="#FEFEFE"/>
        <path fill="#FEFEFE" d="M8.303 23.07h-.932v2.123H4.177v.856h7.296V25.193h-3.17zM24.995 18.638h-.925v8.491h.925v-4.594h1.045v-.847h-1.045zM21.452 21.635v-1.722h1.696v-.847h-4.274v.847h1.647v1.686c0 .856-1.072 2.327-2.086 3.014l.658.652c.6-.402 1.491-1.49 1.921-2.195.388.615 1.242 1.641 1.84 2.042l.617-.659c-.916-.624-2.019-1.918-2.019-2.818M26.94 21.313l.517.696c.852-.259 2.036-.839 2.595-1.614.583.74 1.72 1.355 2.612 1.614l.502-.696c-1.388-.4-2.198-.99-2.514-1.623l-.04-.088h2.083v-.803h-5.278v.803h2.1l-.04.08c-.364.677-1.12 1.212-2.538 1.631M31.844 25.648c0 .49-.543.82-1.807.82-1.267 0-1.808-.32-1.808-.82 0-.473.55-.848 1.808-.848 1.264 0 1.807.375 1.807.848zm-5.472-2.39h3.21v.748c-1.483.099-2.286.687-2.286 1.642 0 1.07.98 1.65 2.74 1.65 1.76 0 2.732-.616 2.732-1.65 0-.963-.793-1.543-2.278-1.642v-.748h3.186V22.41h-7.304v.848zM16.969 27.129h.932V18.63h-.932zM14.943 24.257v.089h-2.011c-.057 0-.081-.027-.081-.09v-2.158h2.092v2.159zm0-3.014h-2.092v-2.23h-.92v5.645c0 .294.206.535.497.535h3.439v-6.18h-.924v2.23zM39.63 23.48h.906v-4.842h-.907zM36.41 21.661c.365.544 1.305 1.213 2.019 1.471l.519-.668c-.932-.455-2.109-1.196-2.109-2.114v-1.596h-.948v1.614c0 1.025-1.014 1.917-2.01 2.443l.608.643c.85-.482 1.54-1.231 1.922-1.793M36.11 24.8h3.47v1.534H36.19c-.057 0-.081-.026-.081-.089V24.8zm-.892 1.82c0 .312.211.535.495.535h4.759V23.98h-5.254v2.64z"/>
    </g>
</svg>
