<svg width="87" height="46" viewBox="0 0 87 46" fill="none" xmlns="http://www.w3.org/2000/svg">
<g clip-path="url(#clip0_3621_186)">
<path d="M38.8426 9.08576C38.8426 9.63859 38.3931 10.0829 37.8403 10.0829C37.2875 10.0829 36.8431 9.63342 36.8431 9.08576C36.8431 8.5381 37.2875 8.08344 37.8403 8.08344C38.3931 8.08344 38.8426 8.53293 38.8426 9.08576Z" fill="#7D8386"/>
<path d="M27.6569 12.6094C27.6569 13.746 28.5817 14.676 29.7235 14.676H31.3252V13.746H29.7235C29.0983 13.746 28.592 13.2345 28.592 12.6094C28.592 11.9842 29.0983 11.4727 29.7235 11.4727H31.3252V10.5427H29.7235C28.5869 10.5427 27.6569 11.4676 27.6569 12.6094Z" fill="#7D8386"/>
<path d="M31.5577 12.6094C31.5577 13.746 32.4825 14.676 33.6243 14.676H35.226V13.746H33.6243C32.9992 13.746 32.4877 13.2345 32.4877 12.6094C32.4877 11.9842 32.9992 11.4727 33.6243 11.4727H35.226V10.5427H33.6243C32.4825 10.5427 31.5577 11.4676 31.5577 12.6094Z" fill="#7D8386"/>
<path d="M42.0459 9.08576C42.0459 9.63859 41.6016 10.0829 41.0488 10.0829C40.4959 10.0829 40.0464 9.63342 40.0464 9.08576C40.0464 8.5381 40.4959 8.08344 41.0488 8.08344C41.6016 8.08344 42.0459 8.53293 42.0459 9.08576Z" fill="#7D8386"/>
<path d="M41.0436 10.5427C40.3977 10.5427 39.8242 10.8372 39.4419 11.3022C39.0648 10.8372 38.4861 10.5427 37.8403 10.5427C36.7036 10.5427 35.7736 11.4676 35.7736 12.6094V14.676H36.7036V12.6094C36.7036 11.9842 37.2151 11.4727 37.8403 11.4727C38.4654 11.4727 38.9769 11.9842 38.9769 12.6094V14.676H39.9069V12.6094C39.9069 11.9842 40.4184 11.4727 41.0436 11.4727C41.6687 11.4727 42.1802 11.9842 42.1802 12.6094V14.676H43.1102V12.6094C43.1102 11.4727 42.1854 10.5427 41.0436 10.5427Z" fill="#7D8386"/>
<path d="M9.04675 19.9253C9.59441 20.8243 11.0669 21.7853 11.9194 22.054L12.529 21.31C11.5164 20.9741 9.53241 19.7858 9.53241 18.551V17.342H8.56625V18.551C8.56625 19.822 6.55644 20.9793 5.53345 21.31L6.16894 22.0643C7.12477 21.7388 8.48359 20.752 9.04675 19.9253Z" fill="#7D8386"/>
<path d="M9.53239 21.5786H8.56107V23.7951H5.23376V24.6838H12.6634H12.8339V24.4978V23.7951H9.53239V21.5786Z" fill="#7D8386"/>
<path d="M26.9232 16.9648H25.9571V25.8101H26.7527H26.9232V25.6241V21.0258H28.0082V20.1423H26.9232V16.9648Z" fill="#7D8386"/>
<path d="M23.2291 20.0855V18.2927H24.9961V17.4092H20.5424V18.2927H22.2577V20.0493C22.2577 20.9431 21.1418 22.4725 20.0878 23.1906L20.7698 23.8675C21.3949 23.449 22.3249 22.3175 22.7692 21.5838C23.1722 22.2245 24.0609 23.294 24.6861 23.7125L25.3267 23.0253C24.3709 22.3743 23.2239 21.0258 23.2239 20.0907L23.2291 20.0855Z" fill="#7D8386"/>
<path d="M28.9434 19.7496L29.4807 20.473C30.3694 20.2043 31.599 19.5998 32.1828 18.7938C32.7925 19.5636 33.9757 20.2043 34.9005 20.473L35.4223 19.7496C33.9757 19.3312 33.1335 18.7163 32.8028 18.0602L32.7615 17.9672H34.9315V17.1302H29.4342V17.9672H31.6197L31.5784 18.0498C31.196 18.7577 30.4107 19.3157 28.933 19.7496H28.9434Z" fill="#7D8386"/>
<path d="M28.3544 21.775H31.6972V22.5551C30.1524 22.6585 29.3154 23.2681 29.3154 24.2653C29.3154 25.3813 30.3384 25.9858 32.1725 25.9858C34.0066 25.9858 35.0193 25.3451 35.0193 24.2653C35.0193 23.263 34.1926 22.6585 32.6427 22.5551V21.775H35.9648V20.8915H28.3544V21.775ZM34.0532 24.2653C34.0532 24.7768 33.4848 25.1178 32.1725 25.1178C30.8602 25.1178 30.2867 24.7819 30.2867 24.2653C30.2867 23.7745 30.8602 23.3818 32.1725 23.3818C33.4848 23.3818 34.0532 23.7745 34.0532 24.2653Z" fill="#7D8386"/>
<path d="M18.5585 25.8101H19.3645H19.5298V25.6241V16.9545H18.5585V25.8101Z" fill="#7D8386"/>
<path d="M16.4453 19.6773H14.265V17.3523H13.3092V23.232C13.3092 23.5368 13.521 23.7899 13.8259 23.7899H17.4063V17.3523H16.4453V19.6773ZM16.4453 22.8186V22.9116H14.3529C14.296 22.9116 14.2702 22.8858 14.2702 22.8186V20.5711H16.4505V22.8186H16.4453Z" fill="#7D8386"/>
<path d="M42.1647 22.0075H42.9397H43.1102V21.8215V16.9648H42.1647V22.0075Z" fill="#7D8386"/>
<path d="M38.8116 20.1113C39.1888 20.6796 40.1705 21.3771 40.9144 21.6458L41.4569 20.9483C40.4856 20.473 39.2611 19.7032 39.2611 18.7473V17.0837H38.2743V18.768C38.2743 19.8375 37.2203 20.7675 36.1818 21.3151L36.8122 21.9816C37.7008 21.4805 38.419 20.7003 38.8168 20.1165L38.8116 20.1113Z" fill="#7D8386"/>
<path d="M37.5717 25.2779C37.5717 25.6034 37.7938 25.8359 38.0883 25.8359H43.0483V25.2779V22.5293H37.5768V25.2779H37.5717ZM38.5016 23.3818H42.1131V24.9783H38.5843C38.5275 24.9783 38.5016 24.9524 38.5016 24.8853V23.3818Z" fill="#7D8386"/>
<path d="M76.7397 1H62.8209H62.8106C62.8054 1 62.8002 1 62.7951 1H17.086H16.9775C7.44508 1 -0.279008 8.89459 0.00515601 18.4942C0.278987 27.7321 8.10125 34.9602 17.3392 34.9602H62.7899C62.7899 34.9602 62.8002 34.9602 62.8054 34.9602H62.8157H76.7346C82.2164 34.9602 86.6597 30.5169 86.6597 25.0351V10.9302C86.6597 5.44846 82.2164 1.00517 76.7346 1.00517L76.7397 1ZM33.7122 33.095C33.3402 33.1415 33.0302 33.1674 32.7408 33.1674H17.8507H17.737H17.5975C9.2224 33.1674 2.4128 26.3578 2.4128 17.9878C2.4128 9.61792 9.21723 2.79798 17.6388 2.79798H32.7408C33.0302 2.79798 33.3402 2.81865 33.7432 2.87032C41.5603 3.62464 47.4502 10.1191 47.4502 17.9827C47.4502 25.8463 41.5551 32.3407 33.7122 33.1002V33.095Z" fill="#7D8386"/>
<path d="M7.97724 43.8209V44.3944H2.45929V43.8209H4.8411V42.3949H5.53859V43.8209H7.9824H7.97724ZM7.45024 42.5189C6.45308 42.3226 5.59026 41.7181 5.1976 40.9069C4.7946 41.7181 3.92661 42.3226 2.93462 42.5189L2.64012 41.9403C3.84911 41.7388 4.8256 40.8243 4.8256 39.8891V39.4293H5.55926V39.8891C5.55926 40.8346 6.53575 41.7388 7.73957 41.9403L7.45024 42.5189Z" fill="#7D8386"/>
<path d="M9.00021 39.5533V41.1033H10.545V39.5533H11.2425V43.7124H8.31305V39.5533H9.00021ZM9.00021 43.1493H10.545V41.6561H9.00021V43.1493ZM13.0043 39.047V45.1591H12.3017V39.047H13.0043Z" fill="#7D8386"/>
<path d="M15.6548 40.8243C15.6548 41.7698 16.2542 42.8496 17.179 43.2888L16.7915 43.8364C16.1095 43.5109 15.5928 42.8393 15.3138 42.0694C15.0452 42.9168 14.5027 43.6504 13.8052 43.9914L13.4073 43.4386C14.3373 42.9943 14.9573 41.8369 14.9573 40.8295V40.2405H13.6295V39.667H16.9413V40.2405H15.6548V40.8295V40.8243ZM19.1888 42.0333H18.2381V45.1488H17.5458V39.0573H18.2381V41.4598H19.1888V42.0333Z" fill="#7D8386"/>
<path d="M22.1493 42.4259V42.9943C23.2498 43.0614 23.8904 43.4386 23.8904 44.0741C23.8904 44.7613 23.1051 45.1539 21.7928 45.1539C20.4805 45.1539 19.6951 44.7613 19.6951 44.0741C19.6951 43.4386 20.3513 43.0563 21.457 42.9891V42.4311H19.0493V41.8783H24.5621V42.4311H22.1545L22.1493 42.4259ZM19.3231 41.0155C20.4495 40.9018 21.2348 40.4265 21.3278 39.884H19.5608V39.326H24.0609V39.884H22.2785C22.3715 40.4316 23.1568 40.9018 24.2831 41.0155L24.0403 41.5631C22.9656 41.4495 22.1286 41.0103 21.8083 40.38C21.4776 41.0051 20.6406 41.4443 19.5763 41.5631L19.3283 41.0155H19.3231ZM21.7928 43.5213C20.9041 43.5213 20.403 43.7124 20.403 44.0741C20.403 44.4358 20.9041 44.6218 21.7928 44.6218C22.6814 44.6218 23.1878 44.4254 23.1878 44.0741C23.1878 43.7228 22.6814 43.5213 21.7928 43.5213Z" fill="#7D8386"/>
<path d="M27.9514 42.2709C27.2487 42.0436 26.7321 41.5735 26.4582 40.9638C26.1844 41.62 25.6574 42.1366 24.9289 42.3898L24.5931 41.8421C25.5489 41.5166 26.0966 40.7158 26.0966 39.884V39.295H26.8044V39.884C26.8044 40.6848 27.3521 41.434 28.2872 41.7336L27.9514 42.2709ZM25.6161 42.8393H29.6047V45.0816H25.6161V42.8393ZM26.2981 44.5288H28.9227V43.3973H26.2981V44.5288ZM29.6047 39.0676V42.5241H28.9124V39.0676H29.6047Z" fill="#7D8386"/>
<path d="M33.0508 40.6693C32.6737 41.6406 31.7747 42.3226 30.4623 42.7049L30.1833 42.1521C31.6145 41.7543 32.405 41.0051 32.5238 40.0545H30.4985V39.4965H33.2627C33.2627 39.7135 33.242 39.915 33.2058 40.1061H34.4613V39.0573H35.1536V42.6378H34.4613V41.9351H32.9837V41.3668H34.4613V40.6641H33.0457L33.0508 40.6693ZM35.2053 43.9139C35.2053 44.6631 34.4045 45.1229 33.1697 45.1229C31.9348 45.1229 31.1392 44.6631 31.1392 43.9139C31.1392 43.1648 31.9348 42.7101 33.1697 42.7101C34.4045 42.7101 35.2053 43.1699 35.2053 43.9139ZM34.5181 43.9139C34.5181 43.4954 33.9963 43.2578 33.1697 43.2578C32.343 43.2578 31.8263 43.4954 31.8263 43.9139C31.8263 44.3324 32.3482 44.5753 33.1697 44.5753C33.9911 44.5753 34.5181 44.3376 34.5181 43.9139Z" fill="#7D8386"/>
<path d="M38.5326 41.8421C38.2484 42.1521 37.8196 42.3329 37.3236 42.3329C36.4143 42.3329 35.7323 41.7284 35.7323 40.8708C35.7323 40.0131 36.4143 39.3983 37.3236 39.3983C37.8248 39.3983 38.2484 39.5895 38.5326 39.8891H40.0051V39.047H40.6974V42.6429H40.0051V41.8421H38.5326ZM37.3236 41.7491C37.8506 41.7491 38.2433 41.3978 38.2433 40.8708C38.2433 40.3438 37.8506 39.9873 37.3236 39.9873C36.7966 39.9873 36.3936 40.3386 36.3936 40.8708C36.3936 41.4029 36.7863 41.7491 37.3236 41.7491ZM40.7232 43.9604C40.7232 44.7096 39.9328 45.1487 38.6669 45.1487C37.4011 45.1487 36.6158 44.7096 36.6158 43.9604C36.6158 43.2113 37.3959 42.7824 38.6669 42.7824C39.9379 42.7824 40.7232 43.2216 40.7232 43.9604ZM40.0361 43.9604C40.0361 43.5574 39.5349 43.3249 38.6669 43.3249C37.7989 43.3249 37.2978 43.5574 37.2978 43.9604C37.2978 44.3634 37.8041 44.6011 38.6669 44.6011C39.5298 44.6011 40.0361 44.3789 40.0361 43.9604ZM38.8478 40.4575C38.8839 40.5866 38.9046 40.7209 38.9046 40.8708C38.9046 41.0206 38.8839 41.1549 38.8426 41.2841H40.0051V40.4626H38.8529L38.8478 40.4575Z" fill="#7D8386"/>
<path d="M44.097 39.1658V44.9679H43.8749V39.1658H44.097Z" fill="#7D8386"/>
<path d="M51.6765 41.8421V42.4001H46.1844V41.8421H48.344V40.721H49.0467V41.8421H51.6765ZM51.041 44.0069C51.041 44.7147 50.204 45.1487 48.9072 45.1487C47.6104 45.1487 46.763 44.7147 46.763 44.0069C46.763 43.2991 47.5949 42.8754 48.9072 42.8754C50.2195 42.8754 51.041 43.3094 51.041 44.0069ZM50.1523 41.4029C50.3073 40.8036 50.3125 40.3645 50.3125 39.9046H46.8199V39.3466H51.0048V39.8581C51.0048 40.3438 51.0048 40.8501 50.8343 41.4753L50.1523 41.4029ZM50.3487 44.0069C50.3487 43.6298 49.8062 43.4076 48.9124 43.4076C48.0185 43.4076 47.4554 43.6298 47.4554 44.0069C47.4554 44.3841 48.0082 44.6166 48.9124 44.6166C49.8165 44.6166 50.3487 44.3944 50.3487 44.0069Z" fill="#7D8386"/>
<path d="M54.9883 42.4931C54.3115 42.2554 53.8258 41.7749 53.5726 41.1911C53.304 41.8576 52.7873 42.4001 52.0691 42.6533L51.7126 42.1004C52.6581 41.7646 53.2058 40.9535 53.2058 40.1165V40.0286H51.9193V39.4706H55.1794V40.0286H53.9085V40.1113C53.9085 40.876 54.4303 41.6303 55.3396 41.9454L54.9935 42.4931H54.9883ZM56.7811 44.0018C56.7811 44.7303 55.9958 45.1539 54.73 45.1539C53.4641 45.1539 52.6736 44.7303 52.6736 44.0018C52.6736 43.2733 53.4538 42.8496 54.73 42.8496C56.0061 42.8496 56.7811 43.2836 56.7811 44.0018ZM56.0888 44.0018C56.0888 43.6039 55.5876 43.3869 54.7351 43.3869C53.8826 43.3869 53.3711 43.6039 53.3711 44.0018C53.3711 44.3996 53.862 44.6166 54.7351 44.6166C55.6083 44.6166 56.0888 44.3996 56.0888 44.0018ZM56.0629 40.5866V39.0521H56.7553V42.6843H56.0629V41.155H54.9831V40.5866H56.0629Z" fill="#7D8386"/>
<path d="M60.2996 39.698C60.2996 41.4856 59.6382 43.0149 57.5716 44.0431L57.1996 43.5006C58.7857 42.7204 59.4729 41.6458 59.5866 40.2611H57.4683V39.6928H60.2944L60.2996 39.698ZM62.2835 39.0573V45.1591H61.5809V42.0281H60.2737V41.4546H61.5809V39.0573H62.2835Z" fill="#7D8386"/>
<path d="M63.6269 43.1648C64.2624 43.1596 64.8565 43.1234 65.5489 43.0098L65.6109 43.5781C64.7945 43.7176 64.1177 43.7383 63.3685 43.7383H62.9552V41.3616H64.562V40.2456H62.9449V39.6773H65.2337V41.9196H63.6269V43.1596V43.1648ZM67.9668 39.0573V45.1436H67.3055V41.9764H66.5822V44.8439H65.926V39.1761H66.5822V41.4081H67.3055V39.0521H67.9668V39.0573Z" fill="#7D8386"/>
<path d="M72.2964 42.6171C71.7643 42.7256 71.2011 42.7876 70.6638 42.8238V44.9627H69.9663V42.8651C69.3928 42.8858 68.8503 42.8909 68.3802 42.8909L68.2975 42.3174C69.398 42.3174 70.9273 42.2968 72.2448 42.1004L72.2913 42.6119L72.2964 42.6171ZM68.716 40.5918C68.716 39.8426 69.3773 39.3156 70.2866 39.3156C71.196 39.3156 71.8573 39.8426 71.8573 40.5918C71.8573 41.3409 71.196 41.8731 70.2866 41.8731C69.3773 41.8731 68.716 41.3461 68.716 40.5918ZM69.3825 40.5918C69.3825 41.0258 69.7596 41.2996 70.2866 41.2996C70.8136 41.2996 71.1908 41.0206 71.1908 40.5918C71.1908 40.163 70.8188 39.8891 70.2866 39.8891C69.7545 39.8891 69.3825 40.1681 69.3825 40.5918ZM73.3453 39.0521V45.1539H72.6529V39.0521H73.3453Z" fill="#7D8386"/>
<path d="M75.4997 42.3536C74.9211 42.3794 74.3683 42.3898 73.8878 42.3898L73.7999 41.8214C74.9211 41.8163 76.4194 41.8008 77.7059 41.6406L77.7576 42.1418C77.2461 42.2296 76.7139 42.2916 76.1921 42.3174V43.4903H75.4946V42.3588L75.4997 42.3536ZM74.2649 40.3593C74.2649 39.7135 74.8798 39.2846 75.7736 39.2846C76.6674 39.2846 77.2771 39.7083 77.2771 40.3593C77.2771 41.0103 76.6622 41.434 75.7736 41.434C74.8849 41.434 74.2649 41.0103 74.2649 40.3593ZM79.0234 44.4668V45.0351H74.6266V43.2319H75.3189V44.4668H79.0234ZM74.9263 40.3593C74.9263 40.7055 75.2724 40.9173 75.7736 40.9173C76.2747 40.9173 76.6157 40.7003 76.6157 40.3593C76.6157 40.0183 76.2696 39.8013 75.7736 39.8013C75.2776 39.8013 74.9263 40.0183 74.9263 40.3593ZM78.1864 42.6326V39.0521H78.8787V43.6866H78.1864V43.1183H76.9929V42.6326H78.1864Z" fill="#7D8386"/>
<path d="M81.7152 43.4438C82.2629 43.4128 82.8157 43.3766 83.3323 43.3043L83.3789 43.8106C82.0355 44.0379 80.594 44.0586 79.4832 44.0586L79.3954 43.4851C79.881 43.4851 80.439 43.4851 81.0125 43.4644V42.8703C80.3254 42.7618 79.8707 42.3433 79.8707 41.7594C79.8707 41.0775 80.4804 40.628 81.3639 40.628C82.2474 40.628 82.8467 41.0826 82.8467 41.7594C82.8467 42.3536 82.392 42.7669 81.7049 42.8703V43.4438H81.7152ZM83.2084 40.3283H79.5246V39.7703H81.0229V39.0676H81.7152V39.7703H83.2084V40.3283ZM81.3742 42.3639C81.8599 42.3639 82.1957 42.1314 82.1957 41.7543C82.1957 41.3771 81.8599 41.155 81.3742 41.155C80.8885 41.155 80.5424 41.3823 80.5424 41.7543C80.5424 42.1263 80.8782 42.3639 81.3742 42.3639ZM84.3863 39.0521V45.1539H83.6837V39.0521H84.3863Z" fill="#7D8386"/>
<path d="M50.5502 7.72694C50.5502 6.98811 50.762 6.46111 51.1857 6.15112C51.4543 5.95995 51.785 5.86179 52.1622 5.86179C52.653 5.86179 53.0508 6.00128 53.3556 6.29062C53.6811 6.59028 53.8465 7.00361 53.8465 7.5306C53.8465 7.93877 53.7328 8.30043 53.5106 8.60009C53.3763 8.78609 53.149 9.00309 52.8338 9.24075L52.5703 9.43709C52.2707 9.66958 52.0795 9.82458 51.9865 9.90725C51.847 10.0364 51.7592 10.1449 51.7178 10.2431H53.8568V11.1214H50.4778C50.4985 10.7236 50.5605 10.4084 50.6638 10.1811C50.8343 9.79875 51.1598 9.42159 51.6403 9.03926L51.7385 8.95142C52.1983 8.60526 52.4877 8.36243 52.6117 8.21776C52.7977 8.00593 52.8855 7.7631 52.8855 7.48927C52.8855 7.27227 52.8287 7.09144 52.715 6.95194C52.5858 6.79178 52.4153 6.70911 52.188 6.70911C51.8883 6.70911 51.6868 6.83311 51.5783 7.07594C51.5163 7.21544 51.4853 7.43244 51.4802 7.7166H50.5398L50.5502 7.72694Z" fill="white"/>
<path d="M54.7403 6.51278C55.0141 6.08912 55.4481 5.87729 56.0319 5.87729C56.6158 5.87729 57.0497 6.08912 57.3236 6.51278C57.6026 6.94678 57.7421 7.62877 57.7421 8.56393C57.7421 9.49909 57.6026 10.1656 57.3236 10.5996C57.0497 11.0336 56.6158 11.2506 56.0319 11.2506C55.4481 11.2506 55.0141 11.0336 54.7403 10.5996C54.4613 10.1656 54.3218 9.48875 54.3218 8.56393C54.3218 7.63911 54.4613 6.94678 54.7403 6.51278ZM55.4688 10.0106C55.5669 10.2999 55.7581 10.4446 56.0319 10.4446C56.3058 10.4446 56.4969 10.2999 56.6003 10.0106C56.7036 9.73675 56.7553 9.25626 56.7553 8.5691C56.7553 7.88194 56.7036 7.37044 56.6003 7.10178C56.4969 6.81761 56.3058 6.67295 56.0319 6.67295C55.7581 6.67295 55.5669 6.81245 55.4688 7.10178C55.3758 7.37044 55.3293 7.8561 55.3293 8.5691C55.3293 9.28209 55.3758 9.74709 55.4688 10.0106Z" fill="white"/>
<path d="M58.2742 7.72694C58.2742 6.98811 58.4861 6.46111 58.9097 6.15112C59.1784 5.95995 59.5091 5.86179 59.8862 5.86179C60.3771 5.86179 60.7749 6.00128 61.0797 6.29062C61.4052 6.59028 61.5705 7.00361 61.5705 7.5306C61.5705 7.93877 61.4569 8.30043 61.2347 8.60009C61.1004 8.78609 60.873 9.00309 60.5579 9.24075L60.2944 9.43709C59.9947 9.66958 59.8036 9.82458 59.7106 9.90725C59.5711 10.0364 59.4832 10.1449 59.4419 10.2431H61.5809V11.1214H58.2019C58.2226 10.7236 58.2846 10.4084 58.3879 10.1811C58.5584 9.79875 58.8839 9.42159 59.3644 9.03926L59.4626 8.95142C59.9224 8.60526 60.2117 8.36243 60.3357 8.21776C60.5217 8.00593 60.6095 7.7631 60.6095 7.48927C60.6095 7.27227 60.5527 7.09144 60.4391 6.95194C60.3099 6.79178 60.1394 6.70911 59.9121 6.70911C59.6124 6.70911 59.4109 6.83311 59.3024 7.07594C59.2404 7.21544 59.2094 7.43244 59.2042 7.7166H58.2639L58.2742 7.72694Z" fill="white"/>
<path d="M62.4644 6.51278C62.7382 6.08912 63.1722 5.87729 63.7561 5.87729C64.3399 5.87729 64.7739 6.08912 65.0477 6.51278C65.3267 6.94678 65.4662 7.62877 65.4662 8.56393C65.4662 9.49909 65.3267 10.1656 65.0477 10.5996C64.7739 11.0336 64.3399 11.2506 63.7561 11.2506C63.1722 11.2506 62.7382 11.0336 62.4644 10.5996C62.1854 10.1656 62.0459 9.48875 62.0459 8.56393C62.0459 7.63911 62.1854 6.94678 62.4644 6.51278ZM63.1929 10.0106C63.2911 10.2999 63.4822 10.4446 63.7561 10.4446C64.0299 10.4446 64.221 10.2999 64.3244 10.0106C64.4277 9.73675 64.4794 9.25626 64.4794 8.5691C64.4794 7.88194 64.4277 7.37044 64.3244 7.10178C64.221 6.81761 64.0299 6.67295 63.7561 6.67295C63.4822 6.67295 63.2911 6.81245 63.1929 7.10178C63.0999 7.37044 63.0534 7.8561 63.0534 8.5691C63.0534 9.28209 63.0999 9.74709 63.1929 10.0106Z" fill="white"/>
<path d="M52.6685 13.7357C52.932 13.7357 53.1645 13.7564 53.3711 13.8029C53.5778 13.8442 53.7535 13.9062 53.8981 13.9889C54.0428 14.0664 54.1513 14.1645 54.2288 14.273C54.3063 14.3815 54.3476 14.5055 54.3476 14.6347V14.769C54.3476 15.0067 54.2236 15.2082 53.9808 15.3684C53.7328 15.5285 53.3918 15.6267 52.9578 15.6577V16.009H55.0761V16.474H50.266V16.009H52.3843V15.6577C51.9503 15.6267 51.6093 15.5337 51.3613 15.3684C51.1133 15.2082 50.9945 15.0067 50.9945 14.769V14.6347C50.9945 14.5004 51.0358 14.3815 51.1133 14.273C51.1908 14.1645 51.3045 14.0664 51.444 13.9889C51.5886 13.9114 51.7643 13.8494 51.971 13.8029C52.1776 13.7616 52.4101 13.7357 52.6736 13.7357H52.6685ZM50.9532 18.9902V17.6933H53.831V17.3162H50.9273V16.8564H54.3838V18.1428H51.506V18.5303H54.5336V18.9902H50.9532ZM52.6685 15.1979C53.0301 15.1979 53.304 15.1565 53.5003 15.0687C53.6966 14.9809 53.7948 14.8775 53.7948 14.7587V14.645C53.7948 14.5262 53.6966 14.4177 53.5003 14.335C53.304 14.2524 53.025 14.2059 52.6685 14.2059C52.312 14.2059 52.033 14.2472 51.8366 14.335C51.6403 14.4229 51.5421 14.5262 51.5421 14.645V14.7587C51.5421 14.8775 51.6403 14.986 51.8366 15.0687C52.033 15.1514 52.312 15.1979 52.6685 15.1979Z" fill="white"/>
<path d="M58.0469 15.0739H55.4533V14.6037H56.5073V13.87H57.0601V14.6037H58.0469V15.0739ZM56.8018 15.3374C56.9775 15.3374 57.1325 15.3632 57.2771 15.42C57.4218 15.4769 57.5406 15.5492 57.644 15.6422C57.7473 15.7352 57.8248 15.8437 57.8816 15.9677C57.9384 16.0865 57.9643 16.2157 57.9643 16.3552V16.629C57.9643 16.7633 57.9384 16.8925 57.8816 17.0165C57.8248 17.1405 57.7473 17.2438 57.644 17.342C57.5406 17.435 57.4218 17.5125 57.2771 17.5642C57.1376 17.621 56.9775 17.6468 56.8018 17.6468C56.6261 17.6468 56.4711 17.621 56.3265 17.5642C56.187 17.5073 56.063 17.435 55.9596 17.342C55.8563 17.249 55.7788 17.1405 55.722 17.0165C55.6651 16.8977 55.6393 16.7685 55.6393 16.629V16.3552C55.6393 16.2208 55.6651 16.0917 55.722 15.9677C55.7788 15.8437 55.8563 15.7404 55.9596 15.6422C56.063 15.5492 56.1818 15.4717 56.3265 15.42C56.4711 15.3632 56.6261 15.3374 56.8018 15.3374ZM56.8018 17.187C56.9103 17.187 57.0033 17.1715 57.0808 17.1353C57.1635 17.0992 57.2306 17.0527 57.2875 16.9958C57.3443 16.939 57.3856 16.877 57.4115 16.8098C57.4373 16.7427 57.4528 16.6755 57.4528 16.6032V16.3862C57.4528 16.319 57.4373 16.2518 57.4115 16.1795C57.3805 16.1123 57.3391 16.0504 57.2875 15.9935C57.2306 15.9367 57.1635 15.8902 57.0808 15.854C56.9981 15.8179 56.9051 15.8024 56.8018 15.8024C56.6985 15.8024 56.6003 15.8179 56.5228 15.854C56.4401 15.8902 56.373 15.9367 56.3161 15.9935C56.2593 16.0504 56.218 16.1123 56.1921 16.1795C56.1663 16.2467 56.1508 16.3138 56.1508 16.3862V16.6032C56.1508 16.6703 56.1663 16.7375 56.1921 16.8098C56.218 16.877 56.2645 16.939 56.3161 16.9958C56.3678 17.0527 56.4401 17.0992 56.5228 17.1353C56.6055 17.1715 56.6985 17.187 56.8018 17.187ZM58.3828 13.8339H58.9356V15.668H59.4988V13.7254H60.0516V18.9643H59.4988V16.1588H58.9356V18.7112H58.3828V13.8339Z" fill="white"/>
<path d="M64.1849 17.7295C63.9472 17.7502 63.6992 17.7708 63.4512 17.7915C63.2032 17.807 62.9346 17.8225 62.6607 17.8328C62.3817 17.8432 62.0872 17.8535 61.7669 17.8587C61.4466 17.8638 61.1056 17.869 60.7336 17.869V17.3782C61.1107 17.3782 61.4517 17.3782 61.7669 17.373C62.0769 17.373 62.3714 17.3627 62.6452 17.3523C62.9191 17.342 63.1774 17.3317 63.4202 17.3162C63.6631 17.3007 63.9007 17.28 64.1384 17.2593L64.19 17.7295H64.1849ZM62.3817 16.5928C62.1647 16.5928 61.9736 16.5618 61.8031 16.4947C61.6326 16.4327 61.4879 16.3449 61.3639 16.2415C61.2399 16.133 61.1469 16.0142 61.0849 15.8799C61.0229 15.7455 60.9867 15.6009 60.9867 15.451V15.1875C60.9867 15.0377 61.0177 14.8982 61.0849 14.7587C61.1469 14.6244 61.2399 14.5004 61.3639 14.397C61.4827 14.2885 61.6326 14.2059 61.8031 14.1387C61.9736 14.0767 62.1647 14.0405 62.3817 14.0405C62.5987 14.0405 62.7899 14.0715 62.9604 14.1387C63.1309 14.2007 63.2756 14.2885 63.3996 14.397C63.5236 14.5055 63.6114 14.6244 63.6786 14.7587C63.7457 14.893 63.7767 15.0377 63.7767 15.1875V15.451C63.7767 15.6009 63.7457 15.7404 63.6786 15.8799C63.6166 16.0142 63.5236 16.1382 63.3996 16.2415C63.2807 16.35 63.1309 16.4327 62.9604 16.4947C62.7899 16.5567 62.5987 16.5928 62.3817 16.5928ZM62.3817 16.102C62.5006 16.102 62.6091 16.0814 62.7124 16.0452C62.8157 16.009 62.9087 15.9574 62.9862 15.8954C63.0637 15.8334 63.1257 15.761 63.1671 15.6784C63.2084 15.5957 63.2342 15.5079 63.2342 15.4149V15.2237C63.2342 15.1307 63.2136 15.0377 63.1671 14.955C63.1257 14.8672 63.0637 14.7949 62.9862 14.738C62.9087 14.6812 62.8157 14.6295 62.7124 14.5934C62.6091 14.5572 62.4954 14.5417 62.3817 14.5417C62.2681 14.5417 62.1492 14.5624 62.0459 14.5934C61.9426 14.6295 61.8547 14.676 61.7772 14.738C61.6997 14.8 61.6377 14.8724 61.5964 14.955C61.5551 15.0429 61.5292 15.1307 61.5292 15.2237V15.4149C61.5292 15.5079 61.5499 15.5905 61.5964 15.6784C61.6377 15.761 61.6997 15.8334 61.7772 15.8954C61.8547 15.9574 61.9426 16.009 62.0459 16.0452C62.1492 16.0814 62.2577 16.102 62.3817 16.102ZM64.4535 18.954V13.715H65.0115V18.954H64.4535Z" fill="white"/>
<path d="M70.452 17.8483C70.2453 18.0447 70.0232 18.1842 69.7803 18.2565C69.5375 18.334 69.2792 18.3702 69.0002 18.3702C68.7522 18.3702 68.53 18.334 68.3285 18.2617C68.127 18.1893 67.9565 18.0757 67.8118 17.9258C67.6672 17.776 67.5535 17.5848 67.476 17.3627C67.3985 17.1405 67.3572 16.877 67.3572 16.5722V15.9522C67.3572 15.6525 67.3985 15.3942 67.476 15.1669C67.5535 14.9447 67.6672 14.7535 67.817 14.6037C67.9617 14.4539 68.1373 14.3402 68.3388 14.2627C68.5403 14.1852 68.7625 14.149 69.0053 14.149C69.2895 14.149 69.5375 14.1852 69.7493 14.2524C69.9612 14.3247 70.1626 14.4332 70.359 14.583L70.0697 15.0429C69.8837 14.893 69.708 14.7897 69.5375 14.7432C69.367 14.6967 69.1913 14.6709 69.0053 14.6709C68.8503 14.6709 68.7057 14.6967 68.5765 14.7484C68.4473 14.8 68.3337 14.8827 68.2355 14.9912C68.1373 15.0997 68.065 15.2392 68.0133 15.4097C67.9617 15.5802 67.9358 15.7817 67.9358 16.0194V16.4895C67.9358 16.7272 67.9617 16.9287 68.0133 17.0992C68.065 17.2697 68.1425 17.4092 68.2355 17.5177C68.3337 17.6262 68.4473 17.7088 68.5765 17.7605C68.7057 17.8122 68.8503 17.838 69.0053 17.838C69.2017 17.838 69.398 17.807 69.5943 17.745C69.7907 17.683 69.9767 17.5693 70.1472 17.404L70.452 17.838V17.8483Z" fill="white"/>
<path d="M74.1151 17.8483C73.9085 18.0447 73.6863 18.1842 73.4435 18.2565C73.2006 18.334 72.9423 18.3702 72.6633 18.3702C72.4153 18.3702 72.1931 18.334 71.9916 18.2617C71.7901 18.1893 71.6196 18.0757 71.475 17.9258C71.3303 17.776 71.2167 17.5848 71.1392 17.3627C71.0617 17.1405 71.0203 16.877 71.0203 16.5722V15.9522C71.0203 15.6525 71.0617 15.3942 71.1392 15.1669C71.2167 14.9447 71.3303 14.7535 71.4802 14.6037C71.6248 14.4539 71.8005 14.3402 72.002 14.2627C72.2035 14.1852 72.4256 14.149 72.6685 14.149C72.9526 14.149 73.2006 14.1852 73.4125 14.2524C73.6243 14.3247 73.8258 14.4332 74.0221 14.583L73.7328 15.0429C73.5468 14.893 73.3711 14.7897 73.2006 14.7432C73.0301 14.6967 72.8545 14.6709 72.6685 14.6709C72.5135 14.6709 72.3688 14.6967 72.2396 14.7484C72.1105 14.8 71.9968 14.8827 71.8986 14.9912C71.8005 15.0997 71.7281 15.2392 71.6765 15.4097C71.6248 15.5802 71.599 15.7817 71.599 16.0194V16.4895C71.599 16.7272 71.6248 16.9287 71.6765 17.0992C71.7281 17.2697 71.8056 17.4092 71.8986 17.5177C71.9968 17.6262 72.1105 17.7088 72.2396 17.7605C72.3688 17.8122 72.5135 17.838 72.6685 17.838C72.8648 17.838 73.0611 17.807 73.2575 17.745C73.4538 17.683 73.6398 17.5693 73.8103 17.404L74.1151 17.838V17.8483Z" fill="white"/>
<path d="M75.5514 15.3529C75.5308 15.3115 75.5153 15.2702 75.4998 15.2289C75.4843 15.1875 75.4688 15.1462 75.4533 15.1049C75.4378 15.0635 75.4223 15.017 75.4016 14.9602C75.3809 14.9085 75.3603 14.8465 75.3396 14.7794V18.303H74.8074V14.2059H75.6393L76.7759 16.8873L77.8816 14.2059H78.7082V18.303H78.1709V14.7794C78.1502 14.8569 78.1347 14.9189 78.1192 14.9705C78.1037 15.0222 78.0882 15.0687 78.0727 15.11C78.0572 15.1514 78.0469 15.1927 78.0314 15.2289C78.0159 15.265 78.0004 15.3064 77.9797 15.3477L77.0032 17.621H76.5279L75.5618 15.3477L75.5514 15.3529Z" fill="white"/>
<path d="M54.1978 22.1986V23.2681H51.8987V26.9674H52.1828C52.5807 26.9674 52.9837 26.9571 53.3918 26.9364C53.8 26.9157 54.2082 26.8744 54.6215 26.8072L54.7507 27.8664C54.3528 27.9387 53.9292 27.9852 53.4797 28.0059C53.0302 28.0266 52.6013 28.0369 52.188 28.0369H50.6742V22.1935H54.1978V22.1986ZM56.3368 24.4461H57.1428V21.3358H58.3311V30.4652H57.1428V25.5156H56.3368V30.0209H55.1485V21.5218H56.3368V24.4461Z" fill="white"/>
<path d="M62.3972 24.7406C62.3662 24.8181 62.3042 24.9059 62.2215 25.0041C62.1389 25.1023 61.9942 25.2418 61.7875 25.4174C61.5602 25.6138 61.3225 25.8101 61.0745 26.0116C60.8266 26.2131 60.5682 26.4146 60.2944 26.6264L59.5607 25.7119C59.8501 25.5001 60.1084 25.3038 60.3461 25.1126C60.5837 24.9214 60.8162 24.7199 61.0539 24.5029C61.2554 24.3221 61.4207 24.1051 61.5395 23.8623C61.6584 23.6195 61.7204 23.3405 61.7204 23.0201V21.7026H62.9759V22.9788C62.9759 23.1441 62.9862 23.2888 63.0017 23.418C63.0172 23.5471 63.0482 23.666 63.0999 23.7745C63.1464 23.8881 63.2135 23.9915 63.3014 24.0948C63.384 24.1981 63.4925 24.3014 63.6269 24.4048C63.818 24.5598 64.035 24.7303 64.2882 24.9163C64.5413 25.0971 64.7893 25.2779 65.0373 25.4484L64.3502 26.3113C64.1229 26.1563 63.9007 25.9961 63.694 25.8463C63.4822 25.6913 63.2859 25.5466 63.105 25.4019C62.9345 25.2728 62.7847 25.1488 62.6504 25.0351C62.516 24.9214 62.4334 24.8233 62.4075 24.7458H62.3972V24.7406ZM64.1745 30.7391C63.756 30.7391 63.3737 30.6977 63.0327 30.6099C62.6865 30.5272 62.392 30.4032 62.1492 30.2482C61.9064 30.0932 61.7152 29.9021 61.5809 29.6851C61.4465 29.4681 61.3794 29.2252 61.3794 28.9617V28.5484C61.3794 28.2849 61.4465 28.0472 61.5809 27.8251C61.7152 27.6081 61.9064 27.4169 62.1492 27.2619C62.3972 27.1069 62.6917 26.9829 63.0327 26.9003C63.3737 26.8124 63.756 26.7711 64.1745 26.7711C64.593 26.7711 64.9753 26.8124 65.3163 26.9003C65.6625 26.9881 65.9518 27.1069 66.1998 27.2619C66.4427 27.4169 66.6338 27.6081 66.7682 27.8251C66.9025 28.0421 66.9697 28.2849 66.9697 28.5484V28.9617C66.9697 29.2252 66.9025 29.4629 66.7682 29.6851C66.6338 29.9021 66.4427 30.0932 66.1998 30.2482C65.9518 30.4032 65.6625 30.5272 65.3163 30.6099C64.9702 30.6977 64.593 30.7391 64.1745 30.7391ZM64.1745 27.7837C63.9265 27.7837 63.7044 27.8096 63.508 27.8612C63.3117 27.9129 63.1464 27.9801 63.012 28.0627C62.8777 28.1454 62.7744 28.2332 62.702 28.3314C62.6297 28.4296 62.5935 28.5277 62.5935 28.6259V28.8791C62.5935 28.9772 62.6297 29.0754 62.702 29.1736C62.7744 29.2717 62.8777 29.3596 63.012 29.4422C63.1464 29.5249 63.3117 29.5921 63.508 29.6437C63.7044 29.6954 63.9265 29.7212 64.1745 29.7212C64.4225 29.7212 64.6447 29.6954 64.841 29.6437C65.0373 29.5921 65.2027 29.5249 65.337 29.4422C65.4713 29.3596 65.5747 29.2717 65.647 29.1736C65.7193 29.0754 65.7555 28.9772 65.7555 28.8791V28.6259C65.7555 28.5277 65.7193 28.4296 65.647 28.3314C65.5747 28.2332 65.4713 28.1454 65.337 28.0627C65.2027 27.9801 65.0373 27.9129 64.841 27.8612C64.6447 27.8096 64.4225 27.7837 64.1745 27.7837ZM66.9438 23.4128H68.1425V24.4926H66.9438V26.7298H65.709V21.3306H66.9438V23.4128Z" fill="white"/>
</g>
<defs>
<clipPath id="clip0_3621_186">
<rect width="87" height="45" fill="white" transform="translate(0 0.5)"/>
</clipPath>
</defs>
</svg>
