<svg width="55" height="40" viewBox="0 0 55 40" fill="none" xmlns="http://www.w3.org/2000/svg">
    <g clip-path="url(#twqf8wweka)" fill="#fff">
        <path d="M17.024 25.65a1.82 1.82 0 0 1 .414-.041.755.755 0 0 1 .421.104.384.384 0 0 1 .172.34.547.547 0 0 1-.214.443.82.82 0 0 1-.509.148c-.046 0-.092-.004-.137-.01l-.11.572h-.33l.293-1.556zm.199.707c.043.01.087.014.13.012a.306.306 0 0 0 .337-.29c0-.15-.11-.199-.24-.199a.922.922 0 0 0-.139.008l-.088.469zM18.968 27.145a.98.98 0 0 1-.431.093.446.446 0 0 1-.498-.486.692.692 0 0 1 .671-.717.355.355 0 0 1 .401.346c0 .292-.286.397-.75.385a.282.282 0 0 0 .038.118.266.266 0 0 0 .223.09c.11 0 .217-.025.316-.072l.03.243zm-.3-.862a.292.292 0 0 0-.274.236c.267 0 .398-.033.398-.14 0-.062-.046-.101-.126-.101l.002.005zM19.182 27.206l.13-.683c.033-.176.047-.368.058-.466h.296c-.008.077-.013.158-.023.234h.008a.43.43 0 0 1 .43-.261l-.065.328a.318.318 0 0 0-.055 0c-.216 0-.316.195-.36.42l-.08.428h-.339zM20.095 26.903a.728.728 0 0 0 .298.08c.097 0 .147-.047.147-.104 0-.056-.038-.096-.143-.146a.364.364 0 0 1-.244-.307c0-.24.21-.4.507-.4a.7.7 0 0 1 .297.06l-.082.24a.57.57 0 0 0-.23-.048c-.09 0-.15.038-.15.101s.047.087.138.131c.128.065.26.158.26.316 0 .264-.223.407-.53.404a.663.663 0 0 1-.352-.09l.084-.237zM22.245 26.504a.686.686 0 0 1-.688.73.456.456 0 0 1-.486-.475.69.69 0 0 1 .686-.727.46.46 0 0 1 .488.472zm-.824.246c0 .136.066.224.186.224.18 0 .286-.273.286-.474 0-.105-.046-.217-.18-.217-.196.004-.292.289-.292.467zM22.342 27.206l.147-.775c.03-.147.047-.271.063-.374h.3l-.022.19a.487.487 0 0 1 .402-.217.28.28 0 0 1 .297.316 1.38 1.38 0 0 1-.019.192l-.126.668h-.343l.123-.631a.857.857 0 0 0 .011-.128c0-.084-.028-.14-.113-.14-.112 0-.242.14-.288.394l-.098.51-.334-.005zM24.424 27.206c0-.068.01-.145.015-.227a.436.436 0 0 1-.389.254.358.358 0 0 1-.347-.4.777.777 0 0 1 .822-.803c.13.001.258.02.382.055l-.12.603a2.77 2.77 0 0 0-.047.518h-.316zm.097-.91a.367.367 0 0 0-.092-.009c-.22 0-.379.269-.379.482 0 .114.046.191.139.191.093 0 .227-.115.281-.398l.05-.265zM24.97 27.206l.316-1.67h.34l-.316 1.67h-.34zM26.027 27.206l.22-1.15h.337l-.218 1.15h-.34zm.43-1.293a.159.159 0 0 1-.149-.103.16.16 0 0 1-.01-.063.19.19 0 0 1 .195-.192.158.158 0 0 1 .172.167.188.188 0 0 1-.2.191h-.009zM26.648 27.206l.146-.775c.03-.147.046-.271.064-.374h.3l-.023.19a.484.484 0 0 1 .403-.217.28.28 0 0 1 .297.316 1.396 1.396 0 0 1-.02.192l-.127.668h-.338l.122-.631a.578.578 0 0 0 .01-.128c0-.084-.026-.14-.113-.14-.087 0-.24.14-.287.394l-.097.51-.337-.005zM28.015 27.206l.169-.895h-.15l.049-.257h.157v-.059a.617.617 0 0 1 .195-.377.507.507 0 0 1 .327-.109.462.462 0 0 1 .178.028l-.059.269a.294.294 0 0 0-.108-.02c-.111 0-.176.096-.198.21l-.01.058h.226l-.049.257h-.224l-.167.895h-.336zM29.963 26.504a.685.685 0 0 1-.687.73.456.456 0 0 1-.488-.475.692.692 0 0 1 .687-.727.459.459 0 0 1 .488.472zm-.824.246c0 .136.066.224.186.224.18 0 .286-.273.286-.474 0-.105-.046-.217-.18-.217-.196.004-.292.289-.292.467zM30.063 27.206l.129-.683c.033-.176.047-.368.058-.466h.294c0 .077-.01.158-.02.234a.43.43 0 0 1 .429-.261l-.065.328a.301.301 0 0 0-.053 0c-.218 0-.316.195-.362.42l-.08.428h-.33zM30.933 27.206l.143-.775c.026-.147.044-.271.059-.374h.29l-.022.185a.474.474 0 0 1 .396-.215.248.248 0 0 1 .272.22.474.474 0 0 1 .4-.22c.175 0 .279.117.279.316a1.63 1.63 0 0 1-.019.197l-.125.67h-.33l.117-.632a.814.814 0 0 0 .016-.137c0-.081-.036-.136-.114-.136-.112 0-.226.15-.271.383l-.097.521h-.314l.12-.631a.844.844 0 0 0 .014-.133c0-.08-.025-.14-.107-.14-.117 0-.238.158-.278.387l-.095.517-.334-.003zM33.642 27.206c0-.068.01-.145.014-.227a.436.436 0 0 1-.387.254.357.357 0 0 1-.349-.4.777.777 0 0 1 .823-.803c.13.001.258.02.382.055l-.12.603c-.032.171-.048.345-.047.518h-.316zm.096-.91a.377.377 0 0 0-.091-.009c-.218 0-.38.269-.38.482 0 .114.045.191.14.191.095 0 .226-.115.28-.398l.051-.265zM34.847 25.743l-.06.316h.248l-.052.257h-.245l-.078.391a.705.705 0 0 0-.018.147c0 .057.023.097.097.097a.604.604 0 0 0 .094 0l-.038.265a.654.654 0 0 1-.2.027c-.206 0-.302-.105-.302-.25 0-.072.009-.144.026-.215l.087-.457h-.145l.046-.258h.148l.043-.216.349-.104zM35.014 27.206l.22-1.15h.34l-.22 1.15h-.34zm.43-1.293a.159.159 0 0 1-.149-.103.16.16 0 0 1-.01-.063.19.19 0 0 1 .195-.192.158.158 0 0 1 .172.167.189.189 0 0 1-.2.191h-.008zM36.852 26.504a.686.686 0 0 1-.687.73.456.456 0 0 1-.488-.475.69.69 0 0 1 .687-.727.458.458 0 0 1 .488.472zm-.818.246c0 .136.066.224.186.224.182 0 .288-.273.288-.474 0-.105-.048-.217-.182-.217-.2.004-.292.289-.292.467zM36.95 27.206l.146-.775c.03-.147.046-.271.064-.374h.295l-.02.19a.486.486 0 0 1 .4-.217.28.28 0 0 1 .297.316 1.678 1.678 0 0 1-.017.192l-.128.668h-.341l.122-.631a.687.687 0 0 0 .012-.128c0-.084-.028-.14-.115-.14-.087 0-.24.14-.287.394l-.097.51-.331-.005zM17.029 29.256c-.03-.035-.06-.071-.085-.11a.674.674 0 0 1-.425.135c-.299 0-.493-.158-.493-.418s.178-.394.384-.491a.531.531 0 0 1-.087-.269.462.462 0 0 1 .497-.453.362.362 0 0 1 .403.352c0 .183-.139.316-.395.439.065.098.15.216.213.303.098-.119.172-.255.217-.402h.316a1.504 1.504 0 0 1-.375.617c.062.09.142.192.23.297h-.4zm-.221-.305a5.402 5.402 0 0 1-.28-.398.316.316 0 0 0-.158.25.22.22 0 0 0 .242.224.28.28 0 0 0 .196-.076zm-.18-.889a.325.325 0 0 0 .07.197c.124-.055.223-.143.223-.26a.125.125 0 0 0-.13-.137.18.18 0 0 0-.157.129.182.182 0 0 0-.006.071zM18.666 27.669l-.302 1.587h-.33l.302-1.587h.33zM18.666 29.256l.147-.779c.03-.145.047-.27.065-.372h.298l-.022.19a.473.473 0 0 1 .523-.199.28.28 0 0 1 .176.298 1.4 1.4 0 0 1-.02.192l-.127.67h-.342l.123-.64a.661.661 0 0 0 .013-.126c0-.082-.03-.139-.116-.139-.112 0-.241.139-.288.393l-.095.512h-.335zM20.03 29.256l.169-.896h-.15l.049-.258h.147l.01-.059a.617.617 0 0 1 .193-.377.506.506 0 0 1 .327-.108.433.433 0 0 1 .179.029l-.059.268a.26.26 0 0 0-.107-.02c-.112 0-.177.096-.199.21l-.011.057h.227l-.049.258h-.226l-.167.896h-.333zM21.982 28.552a.688.688 0 0 1-.689.729.457.457 0 0 1-.488-.474.693.693 0 0 1 .876-.7.457.457 0 0 1 .3.445zm-.824.246c0 .136.066.224.186.224.181 0 .287-.273.287-.474 0-.105-.047-.217-.181-.217-.2.004-.296.288-.296.467h.004zM22.078 29.256l.13-.686c.033-.175.047-.366.06-.465h.293c-.008.077-.013.158-.022.235a.436.436 0 0 1 .368-.262h.063l-.065.33h-.053c-.217 0-.316.192-.362.418l-.08.43h-.332zM22.948 29.256l.144-.779c.027-.145.044-.27.058-.372h.29l-.021.184a.474.474 0 0 1 .396-.213.248.248 0 0 1 .273.22.474.474 0 0 1 .398-.22c.177 0 .28.116.28.316a1.594 1.594 0 0 1-.02.198l-.124.67h-.329l.116-.631a.697.697 0 0 0 .015-.139c0-.079-.036-.136-.113-.136-.113 0-.225.15-.27.384l-.097.523h-.328l.12-.632a.868.868 0 0 0 .016-.133c0-.08-.026-.14-.11-.14-.114 0-.238.158-.277.387l-.095.52-.322-.007zM25.657 29.256c0-.07.01-.147.015-.23a.432.432 0 0 1-.389.255.356.356 0 0 1-.347-.401.778.778 0 0 1 .824-.802c.129.001.257.02.38.057l-.12.601a2.802 2.802 0 0 0-.047.52h-.316zm.098-.913a.761.761 0 0 0-.093 0c-.218 0-.379.269-.379.474 0 .113.046.19.14.19.096 0 .225-.114.28-.397l.052-.267zM26.862 27.792l-.06.316h.248l-.052.259h-.245l-.077.391a.806.806 0 0 0-.017.146c0 .056.022.096.097.096.03.002.061.002.092 0l-.038.267a.714.714 0 0 1-.2.025c-.204 0-.302-.103-.302-.25.001-.072.01-.144.027-.214l.087-.456h-.146l.046-.26h.15l.041-.216.35-.104zM27.034 29.256l.218-1.151h.34l-.22 1.15h-.338zm.428-1.295a.157.157 0 0 1-.148-.103.158.158 0 0 1-.01-.063.192.192 0 0 1 .196-.192.16.16 0 0 1 .158.106c.007.022.01.045.008.067a.19.19 0 0 1-.2.191l-.004-.006zM28.869 28.552a.688.688 0 0 1-.688.729.454.454 0 0 1-.487-.474.69.69 0 0 1 .687-.726.458.458 0 0 1 .488.47zm-.824.246c0 .136.065.224.185.224.183 0 .287-.273.287-.474 0-.105-.046-.217-.182-.217-.195.004-.29.288-.29.467zM28.965 29.256l.147-.779c.03-.145.046-.27.063-.372h.299l-.02.19a.482.482 0 0 1 .402-.217.277.277 0 0 1 .286.193.28.28 0 0 1 .01.123 1.399 1.399 0 0 1-.018.192l-.128.67h-.341l.123-.64a.81.81 0 0 0 .011-.126c0-.082-.028-.139-.115-.139-.087 0-.24.139-.288.393l-.096.512h-.335zM30.806 28.882a.74.74 0 0 0 .374.1c.133 0 .253-.061.253-.183 0-.091-.068-.148-.213-.225-.145-.078-.328-.215-.328-.42 0-.316.279-.515.623-.515a.79.79 0 0 1 .374.077l-.105.283a.621.621 0 0 0-.296-.068c-.158 0-.241.077-.241.158 0 .08.098.15.23.226a.473.473 0 0 1 .316.418c0 .354-.292.535-.644.535a.829.829 0 0 1-.455-.112l.112-.274zM32.903 29.197a.997.997 0 0 1-.43.092.445.445 0 0 1-.497-.486.69.69 0 0 1 .67-.717.353.353 0 0 1 .368.202.356.356 0 0 1 .033.145c0 .29-.284.398-.749.385a.237.237 0 0 0 .038.117.26.26 0 0 0 .221.09c.11 0 .218-.025.316-.072l.03.244zm-.298-.863a.288.288 0 0 0-.273.238c.265 0 .398-.035.398-.142 0-.065-.048-.104-.125-.104v.008zM33.982 29.218a.766.766 0 0 1-.327.061.45.45 0 0 1-.485-.473.723.723 0 0 1 .752-.731c.079-.001.158.012.233.038l-.083.26a.407.407 0 0 0-.526.236.4.4 0 0 0-.024.157.216.216 0 0 0 .135.223c.029.012.06.017.09.016a.576.576 0 0 0 .23-.048l.005.26zM35.402 28.105l-.145.775a5.578 5.578 0 0 0-.061.376h-.3l.022-.186a.494.494 0 0 1-.395.214c-.186 0-.297-.102-.297-.316 0-.071.008-.143.022-.213l.123-.64h.338l-.117.617a.919.919 0 0 0-.015.158c0 .074.03.132.115.132.115 0 .232-.14.278-.368l.1-.534.332-.015zM35.467 29.256l.13-.686c.033-.175.047-.366.06-.465h.292c0 .077-.01.158-.02.235h.007a.435.435 0 0 1 .367-.262h.063l-.065.33h-.055c-.217 0-.316.192-.36.418l-.08.43h-.339zM36.337 29.256l.22-1.151h.34l-.22 1.15h-.34zm.428-1.295a.157.157 0 0 1-.158-.166.19.19 0 0 1 .194-.192.158.158 0 0 1 .172.167.19.19 0 0 1-.2.191h-.008zM37.613 27.792l-.06.316h.248l-.052.259h-.247l-.077.391a.818.818 0 0 0-.019.146c0 .056.022.096.1.096.03.002.06.002.09 0l-.037.267a.73.73 0 0 1-.2.025c-.206 0-.302-.103-.302-.25.002-.072.01-.144.025-.214l.089-.456h-.147l.047-.26h.149l.042-.216.35-.104zM38.229 28.105l.07.5c.017.12.03.204.039.275.026-.07.052-.144.1-.267l.21-.508h.36l-.415.829a2.211 2.211 0 0 1-.442.655.79.79 0 0 1-.368.199l-.077-.292a.65.65 0 0 0 .385-.29.074.074 0 0 0 0-.056l-.226-1.045h.364zM22.018 31.304l.096-.656c.026-.172.06-.39.106-.619h-.008c-.087.206-.186.425-.273.599l-.325.65h-.264l-.057-.644c-.014-.174-.025-.391-.036-.605-.046.21-.093.447-.133.62l-.158.655h-.315l.398-1.58h.459l.049.604c.01.148.027.328.028.505h.01c.062-.172.134-.34.215-.505l.293-.603h.46l-.215 1.579h-.33zM23.363 31.304c0-.068.01-.146.014-.23a.437.437 0 0 1-.388.255.359.359 0 0 1-.349-.401.78.78 0 0 1 .824-.802c.13 0 .26.02.384.057l-.122.603c-.03.17-.047.344-.047.518h-.316zm.096-.911a.47.47 0 0 0-.091-.01c-.22 0-.377.268-.377.483 0 .112.042.191.137.191s.227-.117.28-.4l.051-.264zM23.919 31.304l.148-.777c.03-.147.046-.272.064-.374h.298l-.022.19a.484.484 0 0 1 .4-.217.28.28 0 0 1 .298.316 1.38 1.38 0 0 1-.02.192l-.127.67h-.34l.122-.632a.694.694 0 0 0 .011-.128c0-.08-.028-.137-.115-.137-.087 0-.239.137-.288.391l-.094.512-.335-.006zM26.002 31.304c0-.068.01-.146.014-.23a.436.436 0 0 1-.387.255.357.357 0 0 1-.349-.401.778.778 0 0 1 .824-.802c.13 0 .257.02.38.057l-.12.603c-.031.17-.047.344-.047.518h-.315zm.098-.911a.513.513 0 0 0-.092-.01c-.22 0-.38.268-.38.483 0 .112.044.191.138.191.095 0 .228-.116.281-.4l.053-.264zM26.624 31.463a.725.725 0 0 0 .301.063c.17 0 .294-.074.345-.306l.018-.098a.385.385 0 0 1-.603.046.381.381 0 0 1-.096-.286.741.741 0 0 1 .772-.756c.146-.001.29.026.426.08l-.173.948a.83.83 0 0 1-.243.51.712.712 0 0 1-.444.13.84.84 0 0 1-.377-.074l.074-.257zm.79-1.056a.331.331 0 0 0-.124-.02c-.204 0-.35.227-.35.444 0 .116.052.201.157.201.106 0 .221-.125.26-.316l.056-.31zM28.825 31.237a1.001 1.001 0 0 1-.431.092.443.443 0 0 1-.496-.486.69.69 0 0 1 .67-.717.356.356 0 0 1 .4.347c0 .29-.285.398-.748.385a.248.248 0 0 0 .038.119.263.263 0 0 0 .22.088.73.73 0 0 0 .323-.072l.024.244zm-.299-.863a.292.292 0 0 0-.274.236c.266 0 .398-.031.398-.14 0-.055-.046-.096-.124-.096zM29.04 31.304l.143-.777c.026-.147.044-.272.06-.374h.29l-.023.184a.473.473 0 0 1 .395-.213.25.25 0 0 1 .274.22.473.473 0 0 1 .398-.22.27.27 0 0 1 .28.316 1.6 1.6 0 0 1-.02.199l-.124.67h-.33l.117-.63a.802.802 0 0 0 .016-.14c0-.079-.035-.135-.112-.135-.114 0-.228.15-.272.383l-.096.523h-.318l.12-.632a.832.832 0 0 0 .015-.132c0-.08-.026-.14-.108-.14-.117 0-.238.157-.278.388l-.094.517-.333-.007zM31.956 31.237a1 1 0 0 1-.43.092.446.446 0 0 1-.497-.486.694.694 0 0 1 .67-.717.353.353 0 0 1 .367.203.354.354 0 0 1 .033.144c0 .29-.284.398-.748.385a.216.216 0 0 0 .166.207.214.214 0 0 0 .094 0c.11 0 .218-.025.316-.072l.029.244zm-.299-.863a.29.29 0 0 0-.273.236c.265 0 .398-.031.398-.14 0-.055-.047-.096-.125-.096zM32.169 31.304l.147-.777c.028-.147.047-.272.063-.374h.298l-.02.19a.488.488 0 0 1 .403-.217.282.282 0 0 1 .296.316 1.366 1.366 0 0 1-.019.192l-.128.67h-.333l.123-.632a.87.87 0 0 0 .011-.128c0-.08-.028-.137-.115-.137-.11 0-.24.137-.287.391l-.096.512-.343-.006zM34.14 29.838l-.059.316h.248l-.052.26h-.245l-.077.39a.815.815 0 0 0-.02.146.087.087 0 0 0 .099.098.453.453 0 0 0 .093 0l-.038.267a.712.712 0 0 1-.2.025c-.206 0-.302-.103-.302-.25a.982.982 0 0 1 .027-.213l.086-.458h-.145l.046-.259h.148l.043-.216.347-.106zM23.966 32.987a.74.74 0 0 0 .375.1c.13 0 .25-.06.25-.182 0-.092-.067-.149-.213-.226-.145-.078-.328-.215-.328-.42 0-.316.28-.515.632-.515a.79.79 0 0 1 .374.078l-.108.282a.633.633 0 0 0-.292-.068c-.157 0-.243.078-.243.158s.096.158.23.226a.473.473 0 0 1 .316.42c0 .354-.292.534-.644.534a.829.829 0 0 1-.454-.113l.105-.274zM25.455 32.197l.07.502.038.275c.027-.071.05-.144.1-.268l.219-.509h.363l-.412.828a2.257 2.257 0 0 1-.44.656.789.789 0 0 1-.372.2l-.076-.293a.631.631 0 0 0 .385-.29.08.08 0 0 0 0-.055l-.228-1.046h.353zM26.232 33.047a.741.741 0 0 0 .3.08c.096 0 .145-.047.145-.102 0-.056-.036-.098-.143-.149a.366.366 0 0 1-.242-.306c0-.24.21-.398.507-.398a.673.673 0 0 1 .295.058l-.082.24a.577.577 0 0 0-.229-.048c-.091 0-.158.037-.158.1 0 .064.048.089.14.132.126.064.258.157.258.315 0 .264-.224.408-.529.406a.681.681 0 0 1-.35-.09l.088-.238zM27.824 31.881l-.059.316h.247l-.053.26h-.244l-.078.39a.806.806 0 0 0-.017.148c0 .055.022.094.098.094.03.003.061.003.091 0l-.037.267a.714.714 0 0 1-.2.026c-.205 0-.302-.105-.302-.25a.995.995 0 0 1 .026-.213l.087-.458h-.147l.048-.259h.148l.043-.216.349-.105zM28.94 33.285a1.007 1.007 0 0 1-.433.092.445.445 0 0 1-.495-.487.69.69 0 0 1 .67-.716.354.354 0 0 1 .405.34c0 .291-.285.397-.749.386a.231.231 0 0 0 .038.118.265.265 0 0 0 .221.089c.11 0 .217-.026.316-.073l.027.251zm-.3-.863a.288.288 0 0 0-.273.236c.265 0 .398-.033.398-.14.006-.057-.05-.096-.125-.096zM29.153 33.352l.144-.777c.027-.146.044-.27.06-.375h.289l-.02.187a.473.473 0 0 1 .394-.215.25.25 0 0 1 .275.22.474.474 0 0 1 .397-.22.272.272 0 0 1 .28.316 1.945 1.945 0 0 1-.017.199l-.125.67h-.322l.115-.63a.82.82 0 0 0 .016-.14c0-.08-.035-.136-.112-.136-.114 0-.228.15-.272.384l-.096.523h-.327l.12-.632c.007-.044.012-.088.014-.132 0-.08-.025-.14-.109-.14-.115 0-.238.157-.278.388l-.093.517-.333-.008zM32.917 5.63H31.85v.888c0 .13.07.194.213.194h1.052v-.883c.006-.135-.06-.199-.198-.199zm-.218.821h-.383a.055.055 0 0 1-.064-.061v-.5h.398c.034 0 .05.018.05.053v.508zM32.816 6.859v.234h-.646v.258h.602c-.09.196-.314.32-.674.37l.104.245a1.49 1.49 0 0 0 .509-.135.655.655 0 0 0 .315-.27.79.79 0 0 0 .341.269c.144.07.298.113.457.13l.107-.244c-.343-.049-.564-.17-.666-.365h.598v-.258h-.649v-.231l-.398-.003zM33.831 5.599h-.4V6.9h.4V5.6zM23.276 7.84a.495.495 0 0 0 .184-.395.49.49 0 0 0-.184-.398.917.917 0 0 0-1.034 0 .484.484 0 0 0-.181.398.494.494 0 0 0 .184.4.79.79 0 0 0 .514.157.79.79 0 0 0 .517-.161zm-.82-.395a.27.27 0 0 1 .083-.204.316.316 0 0 1 .224-.077.324.324 0 0 1 .226.077.263.263 0 0 1 .085.204.26.26 0 0 1-.085.2.324.324 0 0 1-.226.077.316.316 0 0 1-.224-.077.263.263 0 0 1-.084-.2zM23.073 6.06h-.436v.253h.436v.568h.398V5.604h-.398v.456z"/>
        <path d="m21.38 6.657.158.232c.134-.049.257-.122.363-.216a.685.685 0 0 0 .209-.288.804.804 0 0 0 .227.265.958.958 0 0 0 .325.174l.158-.227c-.338-.14-.507-.363-.507-.676v-.024h.438v-.262h-1.286v.262h.436v.029c-.001.331-.172.574-.52.73zM23.85 7.217v.26h2.273v-.26h-.938v-.363h.436c.15 0 .221-.071.221-.213v-1h-.4v.329h-.912V5.64h-.402v1c0 .142.074.213.224.213h.432v.363h-.934zm.756-.623c-.052 0-.076-.024-.076-.071v-.296h.913v.296c0 .047-.026.07-.076.07h-.761zM26.336 7.217v.26h2.277v-.26h-.934v-.363h.432c.149 0 .224-.071.224-.213v-1h-.4v.329h-.915V5.64h-.4v1c0 .142.073.213.223.213h.431v.363h-.938zm.757-.623c-.05 0-.078-.024-.078-.071v-.296h.916v.296c0 .047-.028.07-.079.07h-.76zM28.823 7.217v.264h2.27v-.264h-.936v-.175a.666.666 0 0 0 .383-.178.473.473 0 0 0 .135-.341.474.474 0 0 0-.104-.307h.349v-.263h-1.93v.263h.353a.488.488 0 0 0-.1.306.475.475 0 0 0 .134.342c.105.099.238.161.381.178v.175h-.935zm.903-.494a.257.257 0 0 1-.086-.2.261.261 0 0 1 .086-.203.325.325 0 0 1 .233-.08.316.316 0 0 1 .228.08.273.273 0 0 1 0 .405.324.324 0 0 1-.229.08.333.333 0 0 1-.232-.082zM30.434 5.544h-.92v.262h.92v-.262zM13.825 10.994V8.657h-.355v.908h-.235v-.908h-.345v2.309h.345V9.827h.235v1.167h.355zM11.68 10.25l.206.21c.267-.18.489-.42.649-.7.14-.27.21-.572.202-.877a.195.195 0 0 0-.041-.14.208.208 0 0 0-.145-.038h-.806v.262h.53c.047 0 .069.022.069.068.006.456-.221.86-.665 1.215zM16.272 8.657h-.402v1.597h.402V8.657zM15.418 9.777a.62.62 0 0 0 .186-.474.61.61 0 0 0-.418-.613.687.687 0 0 0-.268-.04.698.698 0 0 0-.502.18.61.61 0 0 0-.187.473.62.62 0 0 0 .187.474.704.704 0 0 0 .502.176.691.691 0 0 0 .5-.176zm-.799-.474a.39.39 0 0 1 .08-.253.289.289 0 0 1 .437 0 .439.439 0 0 1 0 .507.289.289 0 0 1-.436 0 .392.392 0 0 1-.08-.254zM14.828 10.954h1.444v-.263h-1.155c-.05 0-.075-.02-.075-.063v-.487h-.4v.641c0 .116.06.172.186.172zM17.477 10.092a.489.489 0 0 0-.183.398.503.503 0 0 0 .186.4.775.775 0 0 0 .513.158.79.79 0 0 0 .518-.158.499.499 0 0 0 .182-.398.492.492 0 0 0-.185-.4.918.918 0 0 0-1.034 0h.003zm.828.398a.262.262 0 0 1-.086.202.331.331 0 0 1-.226.076.324.324 0 0 1-.224-.076.285.285 0 0 1 0-.404.316.316 0 0 1 .224-.08.315.315 0 0 1 .226.08.26.26 0 0 1 .085.196v.006zM18.706 8.646h-.398V9.1h-.436v.255h.436v.566h.398V8.646z"/>
        <path d="m16.613 9.696.158.234c.133-.051.256-.125.363-.218a.727.727 0 0 0 .21-.287.814.814 0 0 0 .224.266.987.987 0 0 0 .326.174l.158-.229c-.34-.139-.507-.363-.507-.674v-.024h.436v-.267h-1.284v.263h.437v.03c.002.339-.17.576-.52.732zM19.086 10.25v.262h2.264v-.262h-.936v-.363h.434c.15 0 .226-.07.226-.213v-1h-.401v.329h-.902v-.328h-.402v.999c0 .142.075.213.224.213h.432v.363h-.94zm.755-.623c-.052 0-.076-.024-.076-.071v-.294h.914v.294c0 .047-.028.07-.077.07h-.761zM23.178 9.01h-.915v-.33h-.4v1c0 .142.073.213.223.213h.433v.357h-.935v.262h2.272v-.262h-.937v-.363h.435c.148 0 .222-.07.222-.213v-1h-.398v.335zm0 .552c0 .047-.026.071-.079.071h-.759c-.052 0-.077-.024-.077-.071v-.294h.915v.294zM24.238 9.257h.35a.473.473 0 0 0-.099.305.474.474 0 0 0 .137.343c.104.1.238.162.381.18v.172h-.935v.263h2.274v-.27h-.936v-.158a.672.672 0 0 0 .38-.18.504.504 0 0 0 .032-.647h.349v-.278h-1.933v.27zm.737.103a.316.316 0 0 1 .232-.08.335.335 0 0 1 .23.08.276.276 0 0 1 0 .406.341.341 0 0 1-.23.079.316.316 0 0 1-.232-.081.278.278 0 0 1 0-.404zM27.92 10.64v-.432h-.4v.578a.159.159 0 0 0 .182.178h1.543v-.26H27.98c-.037 0-.061-.021-.061-.064zM28.537 9.54v-.671c.01-.128-.05-.193-.181-.193h-1.06v.262h.761c.051 0 .075.03.075.089v.513h.405zM33.828 10.942V8.646h-.34v.782h-.355v.262h.356v1.252h.34z"/>
        <path d="M32.455 9.824a1.14 1.14 0 0 1-.352.464l.206.196c.108-.073.201-.163.277-.268a.834.834 0 0 0 .158-.316c.037.114.094.221.169.316.068.098.153.183.25.252l.204-.196a1.226 1.226 0 0 1-.442-1.023V9.23h.38v-.27h-1.138v.27h.38v.02c.008.195-.023.39-.092.574zM34.32 8.646h-.354v2.324h.353V8.646zM36.78 8.646h-.358v2.324h.359V8.646zM34.63 10.25l.204.21c.174-.128.33-.28.463-.45h.64v.937h.342V8.645h-.343v.427h-.267c0-.069.011-.138.011-.213a.189.189 0 0 0-.04-.139.205.205 0 0 0-.144-.04h-.8v.263h.53c.047 0 .068.022.068.066 0 .477-.22.888-.664 1.241zm.997-.91h.316v.41h-.474a1.58 1.58 0 0 0 .158-.417v.006zM38.363 8.637a.701.701 0 0 0-.499.177.679.679 0 0 0 0 .937.797.797 0 0 0 .998 0 .684.684 0 0 0 0-.937.701.701 0 0 0-.5-.177zm.218.897a.264.264 0 0 1-.218.099.262.262 0 0 1-.216-.1.428.428 0 0 1 0-.503.266.266 0 0 1 .216-.1.27.27 0 0 1 .218.1.428.428 0 0 1 0 .504zM38.488 10.606v-.485h-.401v.631c0 .114.061.172.184.172h1.437v-.263H38.56c-.049.008-.072-.014-.072-.055zM39.711 8.646h-.398v1.588h.398V8.646zM40.28 9.312l.076.247c.186-.017.37-.062.543-.133a.7.7 0 0 0 .336-.245.815.815 0 0 0 .36.255c.162.07.334.111.51.123l.07-.243c-.417-.06-.659-.196-.722-.41h.631v-.25h-1.719v.25h.632c-.05.21-.29.346-.717.406zM40.69 10.178a.475.475 0 0 0 0 .742c.16.103.349.152.539.14a.885.885 0 0 0 .533-.14.474.474 0 0 0 0-.742.886.886 0 0 0-.533-.142.895.895 0 0 0-.539.142zm.873.37a.248.248 0 0 1-.088.19.432.432 0 0 1-.494 0 .244.244 0 0 1 0-.379.44.44 0 0 1 .494 0 .245.245 0 0 1 .085.19h.003zM42.364 9.687h-2.272v.255h2.272v-.255zM25.681 8.585h-.919v.262h.92v-.262zM27.879 9.256h-.371v.473h-.338v.262h.559c.2 0 .79-.042.905-.042v-.26c-.114 0-.574.04-.755.04v-.473zM28.76 10.354h.401V9.54h.354v-.26h-.354v-.634h-.401v1.708zM31.215 10.116c-.08 0-.852.035-.901.03-.05-.005-.095-.036-.095-.08V9.63h.834v-.79a.136.136 0 0 0-.158-.166h-1.058v.262h.745c.041 0 .062.022.062.068v.363h-.83v.751c0 .177.073.275.223.296.098.01.196.015.294.014.062 0 .824-.041.881-.043l.003-.27zM31.755 8.646h-.4v2.324h.4V8.646zM33.006 8.581h-.535v.266h.535V8.58zM41.194 26.641c-3.98 6.022-9.218 9.769-13.66 9.79h-.026c-4.413 0-9.66-3.758-13.69-9.804a30.09 30.09 0 0 1-.5-.772h-2.444a33.383 33.383 0 0 0 2.098 3.366c4.273 6.041 9.85 9.797 14.536 9.799h.027c4.722-.014 10.278-3.764 14.505-9.79a34.287 34.287 0 0 0 2.088-3.386H41.7c-.168.27-.333.533-.507.797z"/>
        <path d="M11.403 6.857c.016-.047.035-.093.05-.142 5.764-.875 11.615-2.004 16.014-4.148 4.41 2.12 10.263 3.215 16.035 4.057l.052.143c.489 1.383.777 2.829.858 4.293h2.29a17.752 17.752 0 0 0-.99-5.065 66.528 66.528 0 0 0-.317-.834l-.246-.615-.657-.093c-6.01-.86-12.175-1.961-16.504-4.185L27.46 0l-.526.272c-4.322 2.242-10.48 3.383-16.48 4.278l-.656.098-.24.615c-.119.298-.221.573-.316.835a17.536 17.536 0 0 0-.947 4.962h2.29c.074-1.432.349-2.847.817-4.203zM27.123 23.76h2.81l.902-5.244c.6-3.496-.704-5.244-3.913-5.244H16.907L15.112 23.76h2.798l1.43-8.298h3.202l-1.42 8.302h2.802l1.42-8.302h.394c1.872 0 2.594 1.248 2.163 3.745l-.778 4.553zM1.808 13.272 0 23.76h2.465l1.804-10.487H1.808zM14.37 20.556c.151-.876.031-1.613-.36-2.21-.431-.664-1.121-.995-2.062-.995H8.454a.662.662 0 0 1-.596-.267.845.845 0 0 1-.113-.641 1.22 1.22 0 0 1 .342-.667.923.923 0 0 1 .682-.287h5.93l.381-2.21H8.746a3.325 3.325 0 0 0-2.424.996 3.898 3.898 0 0 0-1.123 2.177c-.15.87-.026 1.599.371 2.187.442.659 1.136.988 2.085.987h3.5a.607.607 0 0 1 .565.271c.113.2.148.434.098.657a1.342 1.342 0 0 1-.338.682.853.853 0 0 1-.652.297H4.325l-.386 2.233h6.905a3.265 3.265 0 0 0 2.406-.996 4.03 4.03 0 0 0 1.12-2.214zM35.147 15.777a.925.925 0 0 1 .685-.288h5.926l.383-2.21h-6.34a3.325 3.325 0 0 0-2.424.996 3.906 3.906 0 0 0-1.121 2.177c-.153.87-.03 1.599.37 2.187.438.659 1.134.987 2.082.987h3.503a.606.606 0 0 1 .566.271c.111.2.145.434.094.657-.042.256-.16.493-.336.682a.848.848 0 0 1-.652.297h-5.954l-.384 2.233h6.357a3.272 3.272 0 0 0 2.408-.996 4.039 4.039 0 0 0 1.12-2.21c.15-.877.03-1.613-.36-2.211-.435-.663-1.123-.995-2.065-.995H35.51a.664.664 0 0 1-.597-.267.845.845 0 0 1-.115-.641c.044-.254.166-.488.349-.67zM52.265 13.272h-6.421L44.047 23.76h2.801l.712-4.097h3.611c2.141 0 3.417-1.203 3.761-3.2.344-1.998-.526-3.19-2.667-3.19zm.065 3.357a1.451 1.451 0 0 1-1.404 1.138H47.86l.39-2.275h3.07c.662 0 1.122.509 1.011 1.137zM44.265 18.072c0-.1-.295-.186-.718-.226.27-.328.418-.596.347-.667-.071-.071-.34.077-.668.347-.041-.423-.126-.717-.227-.717s-.185.292-.226.715c-.327-.27-.595-.415-.666-.345-.071.07.075.34.345.668-.421.039-.716.126-.716.225 0 .1.295.187.716.228-.27.326-.416.596-.345.668.07.07.34-.078.666-.348.041.423.126.717.226.717s.186-.294.227-.717c.328.27.597.417.668.348.071-.07-.077-.341-.346-.668.422-.041.717-.127.717-.228z"/>
    </g>
    <defs>
        <clipPath id="twqf8wweka">
            <path fill="#fff" d="M0 0h55v39.02H0z"/>
        </clipPath>
    </defs>
</svg>
