<svg width="72" height="72" viewBox="0 0 72 72" fill="none" xmlns="http://www.w3.org/2000/svg">
<path d="M64.9043 36.3031C64.9043 52.0858 52.0988 64.8913 36.3161 64.8913C20.5334 64.8913 7.71484 52.0988 7.71484 36.3031C7.71484 29.7248 9.93794 23.6535 13.6691 18.8303C18.8953 12.057 27.0987 7.71484 36.3031 7.71484C45.5075 7.71484 53.7108 12.07 58.9241 18.8433C62.6812 23.6665 64.8913 29.7248 64.8913 36.3031H64.9043Z" stroke="#0A1E5A" stroke-width="3.5" stroke-linecap="round" stroke-linejoin="round"/>
<path d="M36.3006 64.8913C44.1986 64.8913 50.6012 52.0919 50.6012 36.3031C50.6012 20.5142 44.1986 7.71484 36.3006 7.71484C28.4026 7.71484 22 20.5142 22 36.3031C22 52.0919 28.4026 64.8913 36.3006 64.8913Z" stroke="#0A1E5A" stroke-width="3.5" stroke-linecap="round" stroke-linejoin="round"/>
<path d="M36.3008 64.8913V7.71484" stroke="#0A1E5A" stroke-width="3.5" stroke-linecap="round" stroke-linejoin="round"/>
<path d="M64.8913 36.3047H7.71484" stroke="#0A1E5A" stroke-width="3.5" stroke-linecap="round" stroke-linejoin="round"/>
<path d="M58.9366 18.8433C53.1513 21.7164 45.156 23.4975 36.3156 23.4975C27.4752 23.4975 19.4539 21.7164 13.6816 18.8303C18.9079 12.057 27.1112 7.71484 36.3156 7.71484C45.52 7.71484 53.7234 12.07 58.9366 18.8433Z" stroke="#0A1E5A" stroke-width="3.5" stroke-linecap="round" stroke-linejoin="round"/>
<path d="M58.9366 53.7519C53.1513 50.8787 45.156 49.0977 36.3156 49.0977C27.4752 49.0977 19.4539 50.8787 13.6816 53.7649C18.9079 60.5382 27.1112 64.8803 36.3156 64.8803C45.52 64.8803 53.7234 60.5252 58.9366 53.7519Z" stroke="#0A1E5A" stroke-width="3.5" stroke-linecap="round" stroke-linejoin="round"/>
<path d="M56.9295 21.1513C56.9295 24.7524 50.4032 35.5039 50.4032 35.5039C50.4032 35.5039 43.877 24.7524 43.877 21.1513C43.877 17.5501 46.8021 14.625 50.4032 14.625C54.0044 14.625 56.9295 17.5501 56.9295 21.1513Z" fill="#EDF4FF" stroke="#FA002D" stroke-width="3.5" stroke-linecap="round" stroke-linejoin="round"/>
<path d="M50.4021 22.3589C50.9478 22.3589 51.3901 21.9165 51.3901 21.3709C51.3901 20.8252 50.9478 20.3828 50.4021 20.3828C49.8564 20.3828 49.4141 20.8252 49.4141 21.3709C49.4141 21.9165 49.8564 22.3589 50.4021 22.3589Z" stroke="#FA002D" stroke-width="3.5" stroke-linecap="round" stroke-linejoin="round"/>
</svg>
