<svg width="72" height="72" viewBox="0 0 72 72" fill="none" xmlns="http://www.w3.org/2000/svg">
<path d="M24.9531 67.6912V15.5703H48.1203V67.6912" stroke="#0A1E5A" stroke-width="3.5" stroke-linejoin="round"/>
<path d="M30.5859 15.4052V9.0625H42.4887V15.4052" stroke="#0A1E5A" stroke-width="3.5" stroke-linejoin="round"/>
<path d="M36.5371 3.42969L36.5886 8.74269" stroke="#0A1E5A" stroke-width="3.5" stroke-linejoin="round"/>
<path d="M4.28516 67.6914H67.7137" stroke="#0A1E5A" stroke-width="3.5" stroke-linejoin="round"/>
<path d="M48.252 35.5156H62.492V67.373" stroke="#0A1E5A" stroke-width="3.5" stroke-linejoin="round"/>
<path d="M9.39453 67.373V35.5156H24.3554" stroke="#0A1E5A" stroke-width="3.5" stroke-linejoin="round"/>
<path d="M30.9414 23.5859H42.0843" stroke="#FA002D" stroke-width="3.5" stroke-linejoin="round"/>
<path d="M30.9414 31.875H42.0843" stroke="#FA002D" stroke-width="3.5" stroke-linejoin="round"/>
<path d="M30.9414 40.168H42.0843" stroke="#FA002D" stroke-width="3.5" stroke-linejoin="round"/>
<path d="M14.3535 43.957H19.8802" stroke="#0A1E5A" stroke-width="3.5" stroke-linejoin="round"/>
<path d="M14.3535 50.4062H19.8802" stroke="#0A1E5A" stroke-width="3.5" stroke-linejoin="round"/>
<path d="M14.3535 56.8555H19.8802" stroke="#0A1E5A" stroke-width="3.5" stroke-linejoin="round"/>
<path d="M52.5801 43.957H58.1067" stroke="#0A1E5A" stroke-width="3.5" stroke-linejoin="round"/>
<path d="M52.5801 50.4062H58.1067" stroke="#0A1E5A" stroke-width="3.5" stroke-linejoin="round"/>
<path d="M52.5801 56.8555H58.1067" stroke="#0A1E5A" stroke-width="3.5" stroke-linejoin="round"/>
<path d="M30.9414 48.457H42.0843" stroke="#FA002D" stroke-width="3.5" stroke-linejoin="round"/>
<path d="M30.9414 56.7461H42.0843" stroke="#FA002D" stroke-width="3.5" stroke-linejoin="round"/>
</svg>
