<svg width="72" height="72" viewBox="0 0 72 72" fill="none" xmlns="http://www.w3.org/2000/svg">
<path d="M30.9604 26.6665L34.8035 33.8037M34.8035 33.8037H38.0976M34.8035 33.8037L28.7643 63.4504M38.0976 33.8037L41.9407 26.6665M38.0976 33.8037L44.6857 63.4504M25.4702 12.9411H47.4308M21.0781 8H51.8229" stroke="#0A1E5A" stroke-width="3.5" stroke-linejoin="round"/>
<path d="M57.3139 39.8445V42.5896L52.3728 45.3346L47.4316 42.5896V37.6484H53.4708" stroke="#FA002D" stroke-width="3.5" stroke-linejoin="round"/>
<path d="M54.5684 11.8431L51.8233 8L36.9999 23.9214L49.0782 31.0586L54.5684 11.8431Z" stroke="#0A1E5A" stroke-width="3.5" stroke-linejoin="round"/>
<path d="M18.332 11.8431L21.0771 8L35.9005 23.9214L23.8222 31.0586L18.332 11.8431Z" stroke="#0A1E5A" stroke-width="3.5" stroke-linejoin="round"/>
<path d="M14.4881 20.0781C11.042 24.666 9 30.3688 9 36.5486C9 51.7092 21.2901 63.9993 36.4507 63.9993C51.6113 63.9993 63.9014 51.7092 63.9014 36.5486C63.9014 30.3688 61.8594 24.666 58.4133 20.0781" stroke="#0A1E5A" stroke-width="3.5"/>
</svg>
